# xmcd CD database file
#
# Track frame offsets:
#	150
#	14772
#	25584
#	40202
#	59269
#	72042
#	86535
#	103710
#	123163
#	140707
#	155549
#	172517
#	187339
#	201481
#	212340
#	227744
#	238728
#	247945
#	260994
#	275662
#
# Disc length: 3902 seconds
#
# Revision: 0
# Processed by: cddbd v1.5.1PL0 Copyright (c) Steve Scherf et al.
# Submitted via: CDex 1.40Release
#
DISCID=200f3c14
DTITLE=Diverse - New Country Roads - Volume 3
DYEAR=2004
DGENRE=Country
TTITLE0=My Heart's In The Country - Kevin Henderson
TTITLE1=3:30 In The Afternoon - Dallas Wayne
TTITLE2=Good And Country - Jackson Mac Kay
TTITLE3=Man Of Honor - Doug Adkins and One More Ride
TTITLE4=My Life In Song - Hermann Lammers Meyer
TTITLE5=Give Give Give - Too Blue To Cry
TTITLE6=Make Me Whole Again - Gitty Fischer
TTITLE7=Son Of The South - Sam Neely
TTITLE8=When Lovers Lie - Pat O'Bryan
TTITLE9=Crying Angel - Space Cowboys
TTITLE10=November Blues - Country Company
TTITLE11=Let Me Be The First To Make It Last - Kevin Henderson
TTITLE12=Makin' Love Together - Gitty Fischer
TTITLE13=Waht's Your Problem - Doug Adkins and One More Ride
TTITLE14=Nothing To Do With You - Too Blue To Cry
TTITLE15=Marie Jolie Coeur - Hermann Lammers Meyer
TTITLE16=Turn Me Loose And Let Me Swing - Jackson Mac Kay
TTITLE17=Tex-Tosterone - Dallas Wayne
TTITLE18=She Ain't Coming Back - Sam Neely
TTITLE19=Is This Love - Country Company
EXTD=YEAR: 2004 ID3G: 2
EXTT0=
EXTT1=
EXTT2=
EXTT3=
EXTT4=
EXTT5=
EXTT6=
EXTT7=
EXTT8=
EXTT9=
EXTT10=
EXTT11=
EXTT12=
EXTT13=
EXTT14=
EXTT15=
EXTT16=
EXTT17=
EXTT18=
EXTT19=
PLAYORDER=
